<svg xmlns="http://www.w3.org/2000/svg" xmlns:xlink="http://www.w3.org/1999/xlink" viewBox="0 0 128 128"><defs><style>.cls-1{fill:#ff4500;}.cls-2{fill:#fff;}</style><symbol id="icon_2" data-name="icon 2" viewBox="0 0 48 48"><circle class="cls-1" cx="24" cy="24" r="24"/><path class="cls-2" d="M40,24a3.5,3.5,0,0,0-5.93-2.52,17.13,17.13,0,0,0-9.36-3L26.3,11l5.21,1.11a2.5,2.5,0,1,0,.26-1.22L26,9.66a.62.62,0,0,0-.74.48l-1.78,8.37a17.19,17.19,0,0,0-9.5,3,3.5,3.5,0,1,0-3.85,5.72A6.9,6.9,0,0,0,10,28.25C10,33.63,16.26,38,24,38s14-4.37,14-9.75a6.9,6.9,0,0,0-.08-1.05A3.5,3.5,0,0,0,40,24ZM16,26.5A2.5,2.5,0,1,1,18.5,29,2.5,2.5,0,0,1,16,26.5Zm13.94,6.61c-1.71,1.7-5,1.84-5.94,1.84s-4.23-.13-5.94-1.84a.65.65,0,0,1,.92-.92c1.08,1.08,3.38,1.46,5,1.46s3.94-.38,5-1.46a.65.65,0,1,1,.92.92ZM29.5,29A2.5,2.5,0,1,1,32,26.5,2.5,2.5,0,0,1,29.5,29Z"/></symbol></defs><title>reddit</title><g id="Layer_2" data-name="Layer 2"><g id="Layer_1-2" data-name="Layer 1"><use id="icon_2-3" data-name="icon 2" width="48" height="48" transform="scale(2.67)" xlink:href="#icon_2"/></g></g></svg>